<svg width="355" height="490" viewBox="0 0 355 490" fill="none" xmlns="http://www.w3.org/2000/svg">
<line x1="7.5" y1="39" x2="7.5" y2="459" stroke="#ADD8E6" stroke-width="15"/>
<line x1="53.5" y1="490" x2="53.5" y2="5" stroke="#ADD8E6" stroke-width="15"/>
<line x1="153.5" y1="435" x2="153.5" y2="65" stroke="#ADD8E6" stroke-width="15"/>
<line x1="345.5" y1="146" x2="345.5" y2="87" stroke="#ADD8E6" stroke-width="15"/>
<line x1="345.5" y1="404" x2="345.5" y2="345" stroke="#ADD8E6" stroke-width="15"/>
<line x1="280.5" y1="272" x2="280.5" y2="217" stroke="#ADD8E6" stroke-width="15"/>
<line x1="306.5" y1="454" x2="306.5" y2="404" stroke="#ADD8E6" stroke-width="15"/>
<line x1="306.5" y1="87" x2="306.5" y2="39" stroke="#ADD8E6" stroke-width="15"/>
<line x1="99.5" y1="392" x2="99.5" y2="272" stroke="#ADD8E6" stroke-width="15"/>
<line x1="99.5" y1="224" x2="99.5" y2="101" stroke="#ADD8E6" stroke-width="15"/>
<line x1="92" y1="224.5" x2="277" y2="224.5" stroke="#ADD8E6" stroke-width="15"/>
<line x1="46.0362" y1="7.62655" x2="313.308" y2="45.1891" stroke="#ADD8E6" stroke-width="15"/>
<line x1="144.872" y1="65.7454" x2="345.973" y2="94.0083" stroke="#ADD8E6" stroke-width="15"/>
<line x1="6.83225" y1="46.963" x2="128.635" y2="64.0813" stroke="#ADD8E6" stroke-width="15"/>
<line x1="106.044" y1="110.573" x2="353.611" y2="145.366" stroke="#ADD8E6" stroke-width="15"/>
<line x1="92" y1="264.5" x2="277" y2="264.5" stroke="#ADD8E6" stroke-width="15"/>
<line x1="103.956" y1="384.366" x2="351.523" y2="349.573" stroke="#ADD8E6" stroke-width="15"/>
<line x1="53.9562" y1="482.366" x2="301.523" y2="447.573" stroke="#ADD8E6" stroke-width="15"/>
<line x1="151.956" y1="427.366" x2="352.981" y2="399.114" stroke="#ADD8E6" stroke-width="15"/>
<line x1="12.9562" y1="448.578" x2="126.837" y2="432.573" stroke="#ADD8E6" stroke-width="15"/>
</svg>
